
<svg version="1.0" xmlns="http://www.w3.org/2000/svg"
 width="241.000000pt" height="209.000000pt" viewBox="0 0 241.000000 209.000000"
 preserveAspectRatio="xMidYMid meet">

<g transform="translate(0.000000,209.000000) scale(0.100000,-0.100000)"
fill="#000000" stroke="none">
<path d="M1302 2070 c-96 -25 -199 -81 -258 -138 -66 -65 -124 -189 -124 -266
0 -80 27 -177 67 -243 l34 -57 -39 -40 c-22 -23 -42 -52 -45 -66 -5 -22 -5
-23 7 -7 7 9 15 17 18 17 10 0 1 -41 -12 -53 -8 -8 -11 -8 -6 0 3 6 0 13 -6
16 -20 6 -49 -4 -42 -15 3 -5 -3 -4 -14 3 -15 9 -39 10 -107 1 -48 -7 -93 -16
-100 -22 -7 -6 -21 -9 -31 -8 -25 4 -164 -42 -164 -53 0 -5 -27 -9 -59 -9 -33
0 -63 -5 -67 -11 -3 -6 -15 -8 -27 -5 -11 3 -28 1 -38 -5 -27 -14 -79 -18 -79
-6 0 6 -2 8 -5 5 -9 -8 27 -78 37 -72 4 3 7 -5 6 -18 -1 -13 15 -63 36 -113
100 -234 129 -301 138 -312 7 -8 76 -13 231 -16 122 -3 227 -5 232 -5 6 -1 40
2 76 4 61 5 67 4 72 -15 5 -20 12 -21 141 -21 75 0 136 4 136 8 0 4 -5 13 -12
20 -9 9 -2 12 33 12 49 0 71 13 62 39 -3 9 -66 152 -139 318 -74 165 -134 306
-134 312 0 6 -10 11 -22 11 -21 0 -21 0 -2 -16 18 -14 18 -14 -6 -3 -13 7 -37
12 -52 11 -15 0 -30 2 -32 6 -2 4 32 8 75 10 77 3 79 2 91 -24 12 -25 14 -26
78 -19 96 10 130 36 150 114 l11 45 37 -42 c51 -57 104 -82 173 -82 l56 0 -1
-87 c-1 -77 2 -95 27 -146 34 -68 70 -113 112 -138 l30 -19 -95 0 c-88 0 -386
-33 -397 -44 -3 -2 4 -13 15 -24 11 -11 18 -22 16 -25 -3 -2 7 -34 22 -71 l26
-66 238 0 c198 0 240 -2 250 -15 7 -8 10 -22 6 -30 -4 -13 -39 -15 -223 -16
-238 -2 -247 0 148 -35 236 -20 360 -5 428 52 61 51 62 123 2 264 -68 159
-277 486 -376 587 -51 52 -69 64 -120 78 -33 9 -66 18 -72 20 -8 3 -13 21 -13
42 -1 56 -34 237 -59 321 -49 161 -152 211 -339 162z m218 -52 c61 -42 97
-150 126 -378 8 -68 17 -126 18 -128 2 -1 34 -11 71 -22 77 -22 119 -46 109
-62 -4 -6 -3 -8 3 -5 17 11 39 -21 25 -35 -9 -9 -12 -9 -12 0 0 7 -5 12 -11
12 -8 0 -8 -5 1 -15 9 -11 16 -12 26 -4 17 14 27 7 52 -34 15 -26 16 -34 6
-34 -8 0 -11 3 -8 6 3 3 -34 11 -83 16 -55 6 -87 14 -86 22 1 6 -8 11 -20 11
-75 0 -133 16 -164 45 -18 17 -33 35 -33 40 0 5 -13 26 -28 46 -15 20 -37 53
-47 74 -28 53 -77 99 -98 91 -9 -3 -14 -11 -10 -18 4 -6 -1 -5 -10 3 -14 11
-15 16 -5 29 7 9 8 13 2 9 -6 -3 -24 7 -40 24 -16 17 -45 38 -64 47 -92 44
-304 -9 -251 -63 15 -15 39 -132 33 -160 -2 -14 -9 -28 -15 -32 -6 -3 -7 -1
-3 5 4 7 3 12 -2 12 -5 0 -17 36 -27 80 -17 76 -17 81 0 127 48 130 126 213
255 270 108 48 236 57 290 21z m-301 -303 c40 -20 83 -78 116 -155 15 -36 38
-89 51 -118 l23 -53 -27 -10 c-68 -26 -89 -24 -144 18 -48 37 -56 48 -80 119
-15 44 -30 97 -34 119 -3 22 -12 50 -20 61 -7 12 -10 24 -7 28 12 12 94 6 122
-9z m-179 -204 c0 -16 -6 -31 -13 -34 -11 -4 -11 2 -3 29 13 42 16 42 16 5z
m20 -55 c0 -3 -4 -8 -10 -11 -5 -3 -10 -1 -10 4 0 6 5 11 10 11 6 0 10 -2 10
-4z m646 -96 c20 0 9 -16 -15 -23 -13 -3 -18 -1 -14 8 3 10 -2 12 -19 8 -18
-4 -20 -3 -8 6 8 6 21 9 28 6 8 -3 20 -5 28 -5z m48 -29 c4 -5 -3 -7 -14 -4
-23 6 -26 13 -6 13 8 0 17 -4 20 -9z m-4 -31 c0 -5 -2 -10 -4 -10 -3 0 -8 5
-11 10 -3 6 -1 10 4 10 6 0 11 -4 11 -10z m219 -64 c-3 -3 -11 5 -18 17 -13
21 -12 21 5 5 10 -10 16 -20 13 -22z m-970 -17 c-22 -13 -31 -11 -17 5 7 8 17
12 22 9 4 -3 2 -9 -5 -14z m54 14 c-7 -2 -19 -2 -25 0 -7 3 -2 5 12 5 14 0 19
-2 13 -5z" fill="url(#paint1_linear_3307_660)"/>
<path d="M1570 1430 c0 -5 5 -10 11 -10 5 0 7 5 4 10 -3 6 -8 10 -11 10 -2 0
-4 -4 -4 -10z" fill="url(#paint1_linear_3307_660)"/>
<path d="M157 1263 c-3 -5 167 -7 376 -7 210 1 374 0 365 -3 -10 -2 -18 -8
-18 -13 0 -13 38 1 44 16 5 12 -53 14 -379 14 -211 0 -386 -3 -388 -7z" />
<path d="M1553 1160 c0 -36 2 -50 4 -32 2 17 2 47 0 65 -2 17 -4 3 -4 -33z" />
<path d="M173 1183 c-1 -19 1 -22 8 -12 11 17 12 39 2 39 -5 0 -9 -12 -10 -27z" />
<path d="M1353 1080 c0 -47 2 -66 4 -42 2 23 2 61 0 85 -2 23 -4 4 -4 -43z"/>
<path d="M1563 1040 c0 -30 2 -43 4 -27 2 15 2 39 0 55 -2 15 -4 2 -4 -28z"/>
</g>
<defs>
<linearGradient id="paint0_linear_3307_660" x1="263.53" y1="-21.2377" x2="263.53" y2="61.7067" gradientUnits="userSpaceOnUse">
<stop stop-color="#FFAD4B"/>
<stop offset="1" stop-color="#77007C"/>
</linearGradient>
<linearGradient id="paint1_linear_3307_660" x1="221.629" y1="11.3515" x2="221.629" y2="74.3469" gradientUnits="userSpaceOnUse">
<stop stop-color="#FFAD4B"/>
<stop offset="1" stop-color="#77007C"/>
</linearGradient>
<linearGradient id="paint2_linear_3307_660" x1="12.4368" y1="13.0387" x2="61.4043" y2="13.0387" gradientUnits="userSpaceOnUse">
<stop stop-color="#461885"/>
<stop offset="1" stop-color="#AA51E0"/>
</linearGradient>
<linearGradient id="paint3_linear_3307_660" x1="95.6387" y1="52.7843" x2="44.7529" y2="103.158" gradientUnits="userSpaceOnUse">
<stop stop-color="#FFAD4B"/>
<stop offset="1" stop-color="#77007C"/>
</linearGradient>
<linearGradient id="paint4_linear_3307_660" x1="14.0988" y1="50.4582" x2="90.6534" y2="50.4582" gradientUnits="userSpaceOnUse">
<stop stop-color="#461885"/>
<stop offset="1" stop-color="#AA51E0"/>
</linearGradient>
<linearGradient id="paint5_linear_3307_660" x1="92.1533" y1="69.9474" x2="49.7058" y2="103.681" gradientUnits="userSpaceOnUse">
<stop stop-color="#AA51E0"/>
<stop offset="1" stop-color="#461885"/>
</linearGradient>
<linearGradient id="paint6_linear_3307_660" x1="48.9184" y1="55.1328" x2="77.8044" y2="77.1208" gradientUnits="userSpaceOnUse">
<stop stop-color="#AA51E0"/>
<stop offset="1" stop-color="#461885"/>
</linearGradient>
<linearGradient id="paint7_linear_3307_660" x1="26.1832" y1="95.148" x2="26.1832" y2="81.8392" gradientUnits="userSpaceOnUse">
<stop stop-color="#AA51E0"/>
<stop offset="1" stop-color="#461885"/>
</linearGradient>
<linearGradient id="paint8_linear_3307_660" x1="72.927" y1="64.4147" x2="94.4937" y2="77.0606" gradientUnits="userSpaceOnUse">
<stop stop-color="#461885"/>
<stop offset="1" stop-color="#AA51E0"/>
</linearGradient>
<linearGradient id="paint9_linear_3307_660" x1="18.4593" y1="18.6059" x2="65.7446" y2="44.6129" gradientUnits="userSpaceOnUse">
<stop stop-color="#FFAD4B"/>
<stop offset="1" stop-color="#77007C" stop-opacity="0"/>
</linearGradient>
<linearGradient id="paint10_linear_3307_660" x1="32.0901" y1="19.2134" x2="65.1164" y2="37.3778" gradientUnits="userSpaceOnUse">
<stop stop-color="#FFAD4B"/>
<stop offset="1" stop-color="#77007C" stop-opacity="0"/>
</linearGradient>
<linearGradient id="paint11_linear_3307_660" x1="7.34523" y1="18.47" x2="80.8319" y2="18.47" gradientUnits="userSpaceOnUse">
<stop stop-color="#FFAD4B"/>
<stop offset="1" stop-color="#77007C"/>
</linearGradient>
</defs>
</svg>
